M48
; DRILL file {KiCad 5.1.9-73d0e3b20d~88~ubuntu20.04.1} date Wed Jan 20 22:49:55 2021
; FORMAT={-:-/ absolute / inch / decimal}
; #@! TF.CreationDate,2021-01-20T22:49:55-06:00
; #@! TF.GenerationSoftware,Kicad,Pcbnew,5.1.9-73d0e3b20d~88~ubuntu20.04.1
FMAT,2
INCH
T1C0.0157
T2C0.0236
T3C0.0315
T4C0.0394
T5C0.0472
T6C0.0512
T7C0.0669
T8C0.1457
%
G90
G05
T1
X4.4095Y-3.6795
X4.42Y-2.32
X4.42Y-2.7
X4.42Y-3.1
X4.45Y-1.825
X4.475Y-1.65
X4.48Y-2.1
X4.55Y-1.15
X4.55Y-1.875
X4.578Y-2.579
X4.58Y-2.3
X4.5875Y-3.6465
X4.6065Y-3.767
X4.62Y-2.82
X4.62Y-3.34
X4.65Y-1.55
X4.66Y-2.18
X4.66Y-3.74
X4.675Y-1.925
X4.68Y-3.12
X4.68Y-3.89
X4.6858Y-1.6692
X4.714Y-3.528
X4.72Y-2.7
X4.74Y-2.26
X4.74Y-2.44
X4.755Y-3.386
X4.775Y-1.025
X4.775Y-1.15
X4.775Y-1.35
X4.78Y-2.92
X4.78Y-3.699
X4.825Y-1.525
X4.825Y-1.8
X4.8335Y-3.8015
X4.84Y-2.78
X4.85Y-1.72
X4.86Y-2.56
X4.861Y-3.386
X4.87Y-3.65
X4.88Y-1.98
X4.88Y-3.73
X4.8818Y-3.5882
X4.934Y-1.695
X4.94Y-2.64
X4.95Y-1.4
X4.98Y-1.95
X5.0Y-1.025
X5.0Y-1.125
X5.0Y-2.08
X5.022Y-3.412
X5.03Y-3.35
X5.04Y-2.58
X5.05Y-1.325
X5.06Y-2.8
X5.06Y-3.16
X5.09Y-1.474
X5.0917Y-2.7083
X5.094Y-3.525
X5.101Y-1.682
X5.12Y-1.96
X5.125Y-1.05
X5.14Y-2.58
X5.14Y-2.68
X5.178Y-3.0675
X5.2Y-2.35
X5.215Y-3.364
X5.215Y-3.811
X5.222Y-3.184
X5.23Y-3.57
X5.23Y-3.62
X5.235Y-3.515
X5.25Y-1.525
X5.26Y-1.8
X5.27Y-3.772
X5.28Y-2.06
X5.28Y-2.58
X5.28Y-2.82
X5.28Y-2.98
X5.32Y-1.66
X5.34Y-2.806
X5.35Y-3.36
X5.363Y-3.047
X5.387Y-2.76
X5.3915Y-3.1795
X5.394Y-2.848
X5.4Y-2.58
X5.4245Y-3.9105
X5.425Y-3.59
X5.4321Y-1.9429
X5.4321Y-2.2959
X5.4459Y-1.6041
X5.447Y-3.008
X5.45Y-1.05
X5.45Y-1.3
X5.458Y-2.153
X5.5Y-2.08
X5.5Y-3.15
X5.52Y-3.31
X5.52Y-3.81
X5.54Y-2.68
X5.541Y-2.324
X5.545Y-3.009
X5.55Y-1.275
X5.55Y-1.375
X5.55Y-1.725
X5.55Y-3.093
X5.56Y-2.045
X5.6014Y-2.1014
X5.6015Y-3.1865
X5.6112Y-3.3848
X5.63Y-3.59
X5.6358Y-2.3
X5.6425Y-2.0555
X5.6435Y-1.8015
X5.656Y-3.683
X5.6615Y-3.046
X5.665Y-2.635
X5.6665Y-2.473
X5.675Y-2.875
X5.677Y-1.27
X5.708Y-3.53
X5.72Y-2.6537
X5.72Y-3.81
X5.724Y-3.0955
X5.725Y-1.05
X5.725Y-1.501
X5.74Y-2.72
X5.763Y-2.207
X5.78Y-2.92
X5.816Y-2.412
X5.821Y-1.913
X5.825Y-1.675
X5.825Y-2.725
X5.832Y-3.001
X5.8355Y-3.672
X5.84Y-3.0645
X5.841Y-3.1805
X5.85Y-1.275
X5.872Y-2.8305
X5.89Y-2.58
X5.9185Y-2.9745
X5.9365Y-3.1635
X5.9985Y-3.07
X6.0Y-1.05
X6.0Y-1.7
X6.0Y-1.975
X6.004Y-2.846
X6.007Y-3.6625
X6.02Y-3.81
X6.025Y-2.4
X6.03Y-2.709
X6.044Y-3.341
X6.0593Y-3.4993
X6.075Y-1.325
X6.1Y-1.475
X6.102Y-2.971
X6.1135Y-2.59
X6.123Y-3.195
X6.135Y-2.7675
X6.15Y-1.975
X6.15Y-2.175
X6.183Y-3.779
X6.25Y-1.05
X6.252Y-3.18
X6.253Y-3.688
X6.258Y-3.328
X6.265Y-2.802
X6.271Y-2.99
X6.275Y-1.65
X6.275Y-2.225
X6.3Y-1.35
T2
X5.1823Y-1.6169
X5.24Y-1.42
T3
X4.47Y-3.76
X4.47Y-3.86
T4
X4.77Y-3.26
X4.77Y-3.86
X4.87Y-3.26
X4.87Y-3.86
X4.97Y-3.26
X4.97Y-3.86
X5.07Y-3.26
X5.07Y-3.86
X5.17Y-3.26
X5.17Y-3.86
X5.27Y-3.26
X5.27Y-3.86
X5.37Y-3.26
X5.37Y-3.86
X5.47Y-3.26
X5.47Y-3.86
X5.57Y-3.26
X5.57Y-3.86
X5.67Y-3.26
X5.67Y-3.86
X5.77Y-3.26
X5.77Y-3.86
X5.87Y-3.26
X5.87Y-3.86
X5.97Y-3.26
X5.97Y-3.86
X6.05Y-2.07
X6.07Y-3.26
X6.07Y-3.86
X6.17Y-3.26
X6.17Y-3.86
X6.25Y-2.0704
T5
X4.9Y-1.12
X4.9Y-1.22
X4.9Y-1.32
X5.375Y-1.5
X5.375Y-1.8
X6.2569Y-1.5
X6.2569Y-1.8
T6
X5.7Y-2.38
X5.7Y-2.98
X6.0Y-2.28
X6.0Y-2.58
X6.0Y-2.98
T7
X5.1337Y-1.175
X5.2896Y-1.175
X5.4455Y-1.175
X5.6014Y-1.175
X5.7573Y-1.175
X5.9132Y-1.175
X6.0691Y-1.175
X6.225Y-1.175
T8
X4.45Y-1.425
X4.45Y-3.475
X6.25Y-2.45
T0
M30
