%TF.GenerationSoftware,KiCad,Pcbnew,5.1.9-73d0e3b20d~88~ubuntu20.04.1*%
%TF.CreationDate,2021-01-20T22:49:51-06:00*%
%TF.ProjectId,control_board,636f6e74-726f-46c5-9f62-6f6172642e6b,rev?*%
%TF.SameCoordinates,Original*%
%TF.FileFunction,Legend,Bot*%
%TF.FilePolarity,Positive*%
%FSLAX46Y46*%
G04 Gerber Fmt 4.6, Leading zero omitted, Abs format (unit mm)*
G04 Created by KiCad (PCBNEW 5.1.9-73d0e3b20d~88~ubuntu20.04.1) date 2021-01-20 22:49:51*
%MOMM*%
%LPD*%
G01*
G04 APERTURE LIST*
%ADD10C,0.150000*%
%ADD11C,0.120000*%
G04 APERTURE END LIST*
D10*
X149931380Y-34406419D02*
X148931380Y-34406419D01*
X149931380Y-34834990D02*
X149407571Y-34834990D01*
X149312333Y-34787371D01*
X149264714Y-34692133D01*
X149264714Y-34549276D01*
X149312333Y-34454038D01*
X149359952Y-34406419D01*
X149264714Y-35168323D02*
X149264714Y-35549276D01*
X148931380Y-35311180D02*
X149788523Y-35311180D01*
X149883761Y-35358800D01*
X149931380Y-35454038D01*
X149931380Y-35549276D01*
X149264714Y-35739752D02*
X149264714Y-36120704D01*
X148931380Y-35882609D02*
X149788523Y-35882609D01*
X149883761Y-35930228D01*
X149931380Y-36025466D01*
X149931380Y-36120704D01*
X149264714Y-36454038D02*
X150264714Y-36454038D01*
X149312333Y-36454038D02*
X149264714Y-36549276D01*
X149264714Y-36739752D01*
X149312333Y-36834990D01*
X149359952Y-36882609D01*
X149455190Y-36930228D01*
X149740904Y-36930228D01*
X149836142Y-36882609D01*
X149883761Y-36834990D01*
X149931380Y-36739752D01*
X149931380Y-36549276D01*
X149883761Y-36454038D01*
X149883761Y-37311180D02*
X149931380Y-37406419D01*
X149931380Y-37596895D01*
X149883761Y-37692133D01*
X149788523Y-37739752D01*
X149740904Y-37739752D01*
X149645666Y-37692133D01*
X149598047Y-37596895D01*
X149598047Y-37454038D01*
X149550428Y-37358800D01*
X149455190Y-37311180D01*
X149407571Y-37311180D01*
X149312333Y-37358800D01*
X149264714Y-37454038D01*
X149264714Y-37596895D01*
X149312333Y-37692133D01*
X149836142Y-38168323D02*
X149883761Y-38215942D01*
X149931380Y-38168323D01*
X149883761Y-38120704D01*
X149836142Y-38168323D01*
X149931380Y-38168323D01*
X149312333Y-38168323D02*
X149359952Y-38215942D01*
X149407571Y-38168323D01*
X149359952Y-38120704D01*
X149312333Y-38168323D01*
X149407571Y-38168323D01*
X148883761Y-39358800D02*
X150169476Y-38501657D01*
X148883761Y-40406419D02*
X150169476Y-39549276D01*
X149264714Y-41168323D02*
X150074238Y-41168323D01*
X150169476Y-41120704D01*
X150217095Y-41073085D01*
X150264714Y-40977847D01*
X150264714Y-40834990D01*
X150217095Y-40739752D01*
X149883761Y-41168323D02*
X149931380Y-41073085D01*
X149931380Y-40882609D01*
X149883761Y-40787371D01*
X149836142Y-40739752D01*
X149740904Y-40692133D01*
X149455190Y-40692133D01*
X149359952Y-40739752D01*
X149312333Y-40787371D01*
X149264714Y-40882609D01*
X149264714Y-41073085D01*
X149312333Y-41168323D01*
X149931380Y-41644514D02*
X149264714Y-41644514D01*
X148931380Y-41644514D02*
X148979000Y-41596895D01*
X149026619Y-41644514D01*
X148979000Y-41692133D01*
X148931380Y-41644514D01*
X149026619Y-41644514D01*
X149264714Y-41977847D02*
X149264714Y-42358800D01*
X148931380Y-42120704D02*
X149788523Y-42120704D01*
X149883761Y-42168323D01*
X149931380Y-42263561D01*
X149931380Y-42358800D01*
X149931380Y-42692133D02*
X148931380Y-42692133D01*
X149931380Y-43120704D02*
X149407571Y-43120704D01*
X149312333Y-43073085D01*
X149264714Y-42977847D01*
X149264714Y-42834990D01*
X149312333Y-42739752D01*
X149359952Y-42692133D01*
X149264714Y-44025466D02*
X149931380Y-44025466D01*
X149264714Y-43596895D02*
X149788523Y-43596895D01*
X149883761Y-43644514D01*
X149931380Y-43739752D01*
X149931380Y-43882609D01*
X149883761Y-43977847D01*
X149836142Y-44025466D01*
X149931380Y-44501657D02*
X148931380Y-44501657D01*
X149312333Y-44501657D02*
X149264714Y-44596895D01*
X149264714Y-44787371D01*
X149312333Y-44882609D01*
X149359952Y-44930228D01*
X149455190Y-44977847D01*
X149740904Y-44977847D01*
X149836142Y-44930228D01*
X149883761Y-44882609D01*
X149931380Y-44787371D01*
X149931380Y-44596895D01*
X149883761Y-44501657D01*
X149836142Y-45406419D02*
X149883761Y-45454038D01*
X149931380Y-45406419D01*
X149883761Y-45358800D01*
X149836142Y-45406419D01*
X149931380Y-45406419D01*
X149883761Y-46311180D02*
X149931380Y-46215942D01*
X149931380Y-46025466D01*
X149883761Y-45930228D01*
X149836142Y-45882609D01*
X149740904Y-45834990D01*
X149455190Y-45834990D01*
X149359952Y-45882609D01*
X149312333Y-45930228D01*
X149264714Y-46025466D01*
X149264714Y-46215942D01*
X149312333Y-46311180D01*
X149931380Y-46882609D02*
X149883761Y-46787371D01*
X149836142Y-46739752D01*
X149740904Y-46692133D01*
X149455190Y-46692133D01*
X149359952Y-46739752D01*
X149312333Y-46787371D01*
X149264714Y-46882609D01*
X149264714Y-47025466D01*
X149312333Y-47120704D01*
X149359952Y-47168323D01*
X149455190Y-47215942D01*
X149740904Y-47215942D01*
X149836142Y-47168323D01*
X149883761Y-47120704D01*
X149931380Y-47025466D01*
X149931380Y-46882609D01*
X149931380Y-47644514D02*
X149264714Y-47644514D01*
X149359952Y-47644514D02*
X149312333Y-47692133D01*
X149264714Y-47787371D01*
X149264714Y-47930228D01*
X149312333Y-48025466D01*
X149407571Y-48073085D01*
X149931380Y-48073085D01*
X149407571Y-48073085D02*
X149312333Y-48120704D01*
X149264714Y-48215942D01*
X149264714Y-48358800D01*
X149312333Y-48454038D01*
X149407571Y-48501657D01*
X149931380Y-48501657D01*
X148883761Y-49692133D02*
X150169476Y-48834990D01*
X149407571Y-50358800D02*
X149407571Y-50025466D01*
X149931380Y-50025466D02*
X148931380Y-50025466D01*
X148931380Y-50501657D01*
X149931380Y-50882609D02*
X149264714Y-50882609D01*
X149455190Y-50882609D02*
X149359952Y-50930228D01*
X149312333Y-50977847D01*
X149264714Y-51073085D01*
X149264714Y-51168323D01*
X149931380Y-51501657D02*
X149264714Y-51501657D01*
X148931380Y-51501657D02*
X148979000Y-51454038D01*
X149026619Y-51501657D01*
X148979000Y-51549276D01*
X148931380Y-51501657D01*
X149026619Y-51501657D01*
X149883761Y-52358800D02*
X149931380Y-52263561D01*
X149931380Y-52073085D01*
X149883761Y-51977847D01*
X149788523Y-51930228D01*
X149407571Y-51930228D01*
X149312333Y-51977847D01*
X149264714Y-52073085D01*
X149264714Y-52263561D01*
X149312333Y-52358800D01*
X149407571Y-52406419D01*
X149502809Y-52406419D01*
X149598047Y-51930228D01*
X149883761Y-52787371D02*
X149931380Y-52882609D01*
X149931380Y-53073085D01*
X149883761Y-53168323D01*
X149788523Y-53215942D01*
X149740904Y-53215942D01*
X149645666Y-53168323D01*
X149598047Y-53073085D01*
X149598047Y-52930228D01*
X149550428Y-52834990D01*
X149455190Y-52787371D01*
X149407571Y-52787371D01*
X149312333Y-52834990D01*
X149264714Y-52930228D01*
X149264714Y-53073085D01*
X149312333Y-53168323D01*
X148931380Y-53549276D02*
X149931380Y-53787371D01*
X149217095Y-53977847D01*
X149931380Y-54168323D01*
X148931380Y-54406419D01*
X148883761Y-55501657D02*
X150169476Y-54644514D01*
X149883761Y-55787371D02*
X149931380Y-55882609D01*
X149931380Y-56073085D01*
X149883761Y-56168323D01*
X149788523Y-56215942D01*
X149740904Y-56215942D01*
X149645666Y-56168323D01*
X149598047Y-56073085D01*
X149598047Y-55930228D01*
X149550428Y-55834990D01*
X149455190Y-55787371D01*
X149407571Y-55787371D01*
X149312333Y-55834990D01*
X149264714Y-55930228D01*
X149264714Y-56073085D01*
X149312333Y-56168323D01*
X149931380Y-57073085D02*
X149407571Y-57073085D01*
X149312333Y-57025466D01*
X149264714Y-56930228D01*
X149264714Y-56739752D01*
X149312333Y-56644514D01*
X149883761Y-57073085D02*
X149931380Y-56977847D01*
X149931380Y-56739752D01*
X149883761Y-56644514D01*
X149788523Y-56596895D01*
X149693285Y-56596895D01*
X149598047Y-56644514D01*
X149550428Y-56739752D01*
X149550428Y-56977847D01*
X149502809Y-57073085D01*
X149264714Y-57977847D02*
X149931380Y-57977847D01*
X149264714Y-57549276D02*
X149788523Y-57549276D01*
X149883761Y-57596895D01*
X149931380Y-57692133D01*
X149931380Y-57834990D01*
X149883761Y-57930228D01*
X149836142Y-57977847D01*
X149264714Y-58454038D02*
X149931380Y-58454038D01*
X149359952Y-58454038D02*
X149312333Y-58501657D01*
X149264714Y-58596895D01*
X149264714Y-58739752D01*
X149312333Y-58834990D01*
X149407571Y-58882609D01*
X149931380Y-58882609D01*
X149931380Y-59787371D02*
X149407571Y-59787371D01*
X149312333Y-59739752D01*
X149264714Y-59644514D01*
X149264714Y-59454038D01*
X149312333Y-59358800D01*
X149883761Y-59787371D02*
X149931380Y-59692133D01*
X149931380Y-59454038D01*
X149883761Y-59358800D01*
X149788523Y-59311180D01*
X149693285Y-59311180D01*
X149598047Y-59358800D01*
X149550428Y-59454038D01*
X149550428Y-59692133D01*
X149502809Y-59787371D01*
X149550428Y-60263561D02*
X149550428Y-61025466D01*
X149883761Y-61930228D02*
X149931380Y-61834990D01*
X149931380Y-61644514D01*
X149883761Y-61549276D01*
X149836142Y-61501657D01*
X149740904Y-61454038D01*
X149455190Y-61454038D01*
X149359952Y-61501657D01*
X149312333Y-61549276D01*
X149264714Y-61644514D01*
X149264714Y-61834990D01*
X149312333Y-61930228D01*
X149931380Y-62501657D02*
X149883761Y-62406419D01*
X149836142Y-62358800D01*
X149740904Y-62311180D01*
X149455190Y-62311180D01*
X149359952Y-62358800D01*
X149312333Y-62406419D01*
X149264714Y-62501657D01*
X149264714Y-62644514D01*
X149312333Y-62739752D01*
X149359952Y-62787371D01*
X149455190Y-62834990D01*
X149740904Y-62834990D01*
X149836142Y-62787371D01*
X149883761Y-62739752D01*
X149931380Y-62644514D01*
X149931380Y-62501657D01*
X149264714Y-63263561D02*
X149931380Y-63263561D01*
X149359952Y-63263561D02*
X149312333Y-63311180D01*
X149264714Y-63406419D01*
X149264714Y-63549276D01*
X149312333Y-63644514D01*
X149407571Y-63692133D01*
X149931380Y-63692133D01*
X149264714Y-64025466D02*
X149264714Y-64406419D01*
X148931380Y-64168323D02*
X149788523Y-64168323D01*
X149883761Y-64215942D01*
X149931380Y-64311180D01*
X149931380Y-64406419D01*
X149931380Y-64739752D02*
X149264714Y-64739752D01*
X149455190Y-64739752D02*
X149359952Y-64787371D01*
X149312333Y-64834990D01*
X149264714Y-64930228D01*
X149264714Y-65025466D01*
X149931380Y-65501657D02*
X149883761Y-65406419D01*
X149836142Y-65358800D01*
X149740904Y-65311180D01*
X149455190Y-65311180D01*
X149359952Y-65358800D01*
X149312333Y-65406419D01*
X149264714Y-65501657D01*
X149264714Y-65644514D01*
X149312333Y-65739752D01*
X149359952Y-65787371D01*
X149455190Y-65834990D01*
X149740904Y-65834990D01*
X149836142Y-65787371D01*
X149883761Y-65739752D01*
X149931380Y-65644514D01*
X149931380Y-65501657D01*
X149931380Y-66406419D02*
X149883761Y-66311180D01*
X149788523Y-66263561D01*
X148931380Y-66263561D01*
X149931380Y-66930228D02*
X149883761Y-66834990D01*
X149788523Y-66787371D01*
X148931380Y-66787371D01*
X149883761Y-67692133D02*
X149931380Y-67596895D01*
X149931380Y-67406419D01*
X149883761Y-67311180D01*
X149788523Y-67263561D01*
X149407571Y-67263561D01*
X149312333Y-67311180D01*
X149264714Y-67406419D01*
X149264714Y-67596895D01*
X149312333Y-67692133D01*
X149407571Y-67739752D01*
X149502809Y-67739752D01*
X149598047Y-67263561D01*
X149931380Y-68168323D02*
X149264714Y-68168323D01*
X149455190Y-68168323D02*
X149359952Y-68215942D01*
X149312333Y-68263561D01*
X149264714Y-68358799D01*
X149264714Y-68454038D01*
X126640647Y-72096380D02*
X126640647Y-72810666D01*
X126688266Y-72953523D01*
X126783504Y-73048761D01*
X126926361Y-73096380D01*
X127021600Y-73096380D01*
X125688266Y-73096380D02*
X126164457Y-73096380D01*
X126164457Y-72096380D01*
X124783504Y-73001142D02*
X124831123Y-73048761D01*
X124973980Y-73096380D01*
X125069219Y-73096380D01*
X125212076Y-73048761D01*
X125307314Y-72953523D01*
X125354933Y-72858285D01*
X125402552Y-72667809D01*
X125402552Y-72524952D01*
X125354933Y-72334476D01*
X125307314Y-72239238D01*
X125212076Y-72144000D01*
X125069219Y-72096380D01*
X124973980Y-72096380D01*
X124831123Y-72144000D01*
X124783504Y-72191619D01*
X124069219Y-72096380D02*
X124069219Y-72810666D01*
X124116838Y-72953523D01*
X124212076Y-73048761D01*
X124354933Y-73096380D01*
X124450171Y-73096380D01*
X123116838Y-73096380D02*
X123593028Y-73096380D01*
X123593028Y-72096380D01*
X122212076Y-73001142D02*
X122259695Y-73048761D01*
X122402552Y-73096380D01*
X122497790Y-73096380D01*
X122640647Y-73048761D01*
X122735885Y-72953523D01*
X122783504Y-72858285D01*
X122831123Y-72667809D01*
X122831123Y-72524952D01*
X122783504Y-72334476D01*
X122735885Y-72239238D01*
X122640647Y-72144000D01*
X122497790Y-72096380D01*
X122402552Y-72096380D01*
X122259695Y-72144000D01*
X122212076Y-72191619D01*
X121497790Y-72096380D02*
X121497790Y-72810666D01*
X121545409Y-72953523D01*
X121640647Y-73048761D01*
X121783504Y-73096380D01*
X121878742Y-73096380D01*
X120545409Y-73096380D02*
X121021600Y-73096380D01*
X121021600Y-72096380D01*
X119640647Y-73001142D02*
X119688266Y-73048761D01*
X119831123Y-73096380D01*
X119926361Y-73096380D01*
X120069219Y-73048761D01*
X120164457Y-72953523D01*
X120212076Y-72858285D01*
X120259695Y-72667809D01*
X120259695Y-72524952D01*
X120212076Y-72334476D01*
X120164457Y-72239238D01*
X120069219Y-72144000D01*
X119926361Y-72096380D01*
X119831123Y-72096380D01*
X119688266Y-72144000D01*
X119640647Y-72191619D01*
X118926361Y-72096380D02*
X118926361Y-72810666D01*
X118973980Y-72953523D01*
X119069219Y-73048761D01*
X119212076Y-73096380D01*
X119307314Y-73096380D01*
X117973980Y-73096380D02*
X118450171Y-73096380D01*
X118450171Y-72096380D01*
X117069219Y-73001142D02*
X117116838Y-73048761D01*
X117259695Y-73096380D01*
X117354933Y-73096380D01*
X117497790Y-73048761D01*
X117593028Y-72953523D01*
X117640647Y-72858285D01*
X117688266Y-72667809D01*
X117688266Y-72524952D01*
X117640647Y-72334476D01*
X117593028Y-72239238D01*
X117497790Y-72144000D01*
X117354933Y-72096380D01*
X117259695Y-72096380D01*
X117116838Y-72144000D01*
X117069219Y-72191619D01*
D11*
%TO.C,RN2*%
X128852000Y-90424000D02*
X128852000Y-88039000D01*
X128852000Y-88039000D02*
X129132000Y-88039000D01*
X128852000Y-90424000D02*
X128852000Y-92809000D01*
X128852000Y-92809000D02*
X129132000Y-92809000D01*
X139372000Y-90424000D02*
X139372000Y-88039000D01*
X139372000Y-88039000D02*
X139092000Y-88039000D01*
X139372000Y-90424000D02*
X139372000Y-92809000D01*
X139372000Y-92809000D02*
X139092000Y-92809000D01*
X139092000Y-92809000D02*
X139092000Y-94474000D01*
%TO.C,RN1*%
X151337000Y-94769000D02*
X149672000Y-94769000D01*
X151337000Y-95049000D02*
X151337000Y-94769000D01*
X153722000Y-95049000D02*
X151337000Y-95049000D01*
X156107000Y-95049000D02*
X156107000Y-94769000D01*
X153722000Y-95049000D02*
X156107000Y-95049000D01*
X151337000Y-84529000D02*
X151337000Y-84809000D01*
X153722000Y-84529000D02*
X151337000Y-84529000D01*
X156107000Y-84529000D02*
X156107000Y-84809000D01*
X153722000Y-84529000D02*
X156107000Y-84529000D01*
%TO.C,D1*%
X128075000Y-44506000D02*
X128075000Y-47506000D01*
X132675000Y-47506000D02*
X132675000Y-44506000D01*
X128075000Y-43406000D02*
X128075000Y-43606000D01*
X132675000Y-43406000D02*
X128075000Y-43406000D01*
X132675000Y-43606000D02*
X132675000Y-43406000D01*
X132675000Y-48606000D02*
X126875000Y-48606000D01*
X132675000Y-48406000D02*
X132675000Y-48606000D01*
%TO.C,D2*%
X137754000Y-54472000D02*
X137754000Y-57422000D01*
X134534000Y-56272000D02*
X134534000Y-54472000D01*
%TO.C,F3*%
X120266000Y-42419248D02*
X120266000Y-46826752D01*
X125606000Y-42419248D02*
X125606000Y-46826752D01*
%TO.C,F4*%
X112646000Y-49782752D02*
X112646000Y-45375248D01*
X117986000Y-49782752D02*
X117986000Y-45375248D01*
%TO.C,F5*%
X144402000Y-50709248D02*
X144402000Y-55116752D01*
X139062000Y-50709248D02*
X139062000Y-55116752D01*
%TO.C,Q1*%
X153136000Y-69860000D02*
X151676000Y-69860000D01*
X153136000Y-73020000D02*
X149976000Y-73020000D01*
X153136000Y-73020000D02*
X153136000Y-72090000D01*
X153136000Y-69860000D02*
X153136000Y-70790000D01*
%TO.C,RN3*%
X148363000Y-70457000D02*
X148363000Y-72122000D01*
X148643000Y-70457000D02*
X148363000Y-70457000D01*
X148643000Y-68072000D02*
X148643000Y-70457000D01*
X148643000Y-65687000D02*
X148363000Y-65687000D01*
X148643000Y-68072000D02*
X148643000Y-65687000D01*
X138123000Y-70457000D02*
X138403000Y-70457000D01*
X138123000Y-68072000D02*
X138123000Y-70457000D01*
X138123000Y-65687000D02*
X138403000Y-65687000D01*
X138123000Y-68072000D02*
X138123000Y-65687000D01*
%TO.C,U1*%
X140076000Y-44194000D02*
X140076000Y-45294000D01*
X139806000Y-44194000D02*
X140076000Y-44194000D01*
X139806000Y-42694000D02*
X139806000Y-44194000D01*
X146436000Y-44194000D02*
X146436000Y-47024000D01*
X146706000Y-44194000D02*
X146436000Y-44194000D01*
X146706000Y-42694000D02*
X146706000Y-44194000D01*
%TO.C,RN2*%
D10*
X140664380Y-89733523D02*
X140188190Y-89400190D01*
X140664380Y-89162095D02*
X139664380Y-89162095D01*
X139664380Y-89543047D01*
X139712000Y-89638285D01*
X139759619Y-89685904D01*
X139854857Y-89733523D01*
X139997714Y-89733523D01*
X140092952Y-89685904D01*
X140140571Y-89638285D01*
X140188190Y-89543047D01*
X140188190Y-89162095D01*
X140664380Y-90162095D02*
X139664380Y-90162095D01*
X140664380Y-90733523D01*
X139664380Y-90733523D01*
X139759619Y-91162095D02*
X139712000Y-91209714D01*
X139664380Y-91304952D01*
X139664380Y-91543047D01*
X139712000Y-91638285D01*
X139759619Y-91685904D01*
X139854857Y-91733523D01*
X139950095Y-91733523D01*
X140092952Y-91685904D01*
X140664380Y-91114476D01*
X140664380Y-91733523D01*
%TO.C,RN1*%
X154412476Y-96341380D02*
X154745809Y-95865190D01*
X154983904Y-96341380D02*
X154983904Y-95341380D01*
X154602952Y-95341380D01*
X154507714Y-95389000D01*
X154460095Y-95436619D01*
X154412476Y-95531857D01*
X154412476Y-95674714D01*
X154460095Y-95769952D01*
X154507714Y-95817571D01*
X154602952Y-95865190D01*
X154983904Y-95865190D01*
X153983904Y-96341380D02*
X153983904Y-95341380D01*
X153412476Y-96341380D01*
X153412476Y-95341380D01*
X152412476Y-96341380D02*
X152983904Y-96341380D01*
X152698190Y-96341380D02*
X152698190Y-95341380D01*
X152793428Y-95484238D01*
X152888666Y-95579476D01*
X152983904Y-95627095D01*
%TO.C,D1*%
X131113095Y-50158380D02*
X131113095Y-49158380D01*
X130875000Y-49158380D01*
X130732142Y-49206000D01*
X130636904Y-49301238D01*
X130589285Y-49396476D01*
X130541666Y-49586952D01*
X130541666Y-49729809D01*
X130589285Y-49920285D01*
X130636904Y-50015523D01*
X130732142Y-50110761D01*
X130875000Y-50158380D01*
X131113095Y-50158380D01*
X129589285Y-50158380D02*
X130160714Y-50158380D01*
X129875000Y-50158380D02*
X129875000Y-49158380D01*
X129970238Y-49301238D01*
X130065476Y-49396476D01*
X130160714Y-49444095D01*
%TO.C,D2*%
X139496380Y-54633904D02*
X138496380Y-54633904D01*
X138496380Y-54872000D01*
X138544000Y-55014857D01*
X138639238Y-55110095D01*
X138734476Y-55157714D01*
X138924952Y-55205333D01*
X139067809Y-55205333D01*
X139258285Y-55157714D01*
X139353523Y-55110095D01*
X139448761Y-55014857D01*
X139496380Y-54872000D01*
X139496380Y-54633904D01*
X138591619Y-55586285D02*
X138544000Y-55633904D01*
X138496380Y-55729142D01*
X138496380Y-55967238D01*
X138544000Y-56062476D01*
X138591619Y-56110095D01*
X138686857Y-56157714D01*
X138782095Y-56157714D01*
X138924952Y-56110095D01*
X139496380Y-55538666D01*
X139496380Y-56157714D01*
%TO.C,F3*%
X119184571Y-44289666D02*
X119184571Y-43956333D01*
X119708380Y-43956333D02*
X118708380Y-43956333D01*
X118708380Y-44432523D01*
X118708380Y-44718238D02*
X118708380Y-45337285D01*
X119089333Y-45003952D01*
X119089333Y-45146809D01*
X119136952Y-45242047D01*
X119184571Y-45289666D01*
X119279809Y-45337285D01*
X119517904Y-45337285D01*
X119613142Y-45289666D01*
X119660761Y-45242047D01*
X119708380Y-45146809D01*
X119708380Y-44861095D01*
X119660761Y-44765857D01*
X119613142Y-44718238D01*
%TO.C,F4*%
X111688571Y-47245666D02*
X111688571Y-46912333D01*
X112212380Y-46912333D02*
X111212380Y-46912333D01*
X111212380Y-47388523D01*
X111545714Y-48198047D02*
X112212380Y-48198047D01*
X111164761Y-47959952D02*
X111879047Y-47721857D01*
X111879047Y-48340904D01*
%TO.C,F5*%
X145724571Y-52498666D02*
X145724571Y-52165333D01*
X146248380Y-52165333D02*
X145248380Y-52165333D01*
X145248380Y-52641523D01*
X145248380Y-53498666D02*
X145248380Y-53022476D01*
X145724571Y-52974857D01*
X145676952Y-53022476D01*
X145629333Y-53117714D01*
X145629333Y-53355809D01*
X145676952Y-53451047D01*
X145724571Y-53498666D01*
X145819809Y-53546285D01*
X146057904Y-53546285D01*
X146153142Y-53498666D01*
X146200761Y-53451047D01*
X146248380Y-53355809D01*
X146248380Y-53117714D01*
X146200761Y-53022476D01*
X146153142Y-52974857D01*
%TO.C,Q1*%
X154527238Y-69635619D02*
X154622476Y-69588000D01*
X154717714Y-69492761D01*
X154860571Y-69349904D01*
X154955809Y-69302285D01*
X155051047Y-69302285D01*
X155003428Y-69540380D02*
X155098666Y-69492761D01*
X155193904Y-69397523D01*
X155241523Y-69207047D01*
X155241523Y-68873714D01*
X155193904Y-68683238D01*
X155098666Y-68588000D01*
X155003428Y-68540380D01*
X154812952Y-68540380D01*
X154717714Y-68588000D01*
X154622476Y-68683238D01*
X154574857Y-68873714D01*
X154574857Y-69207047D01*
X154622476Y-69397523D01*
X154717714Y-69492761D01*
X154812952Y-69540380D01*
X155003428Y-69540380D01*
X153622476Y-69540380D02*
X154193904Y-69540380D01*
X153908190Y-69540380D02*
X153908190Y-68540380D01*
X154003428Y-68683238D01*
X154098666Y-68778476D01*
X154193904Y-68826095D01*
%TO.C,RN3*%
X137637780Y-67381523D02*
X137161590Y-67048190D01*
X137637780Y-66810095D02*
X136637780Y-66810095D01*
X136637780Y-67191047D01*
X136685400Y-67286285D01*
X136733019Y-67333904D01*
X136828257Y-67381523D01*
X136971114Y-67381523D01*
X137066352Y-67333904D01*
X137113971Y-67286285D01*
X137161590Y-67191047D01*
X137161590Y-66810095D01*
X137637780Y-67810095D02*
X136637780Y-67810095D01*
X137637780Y-68381523D01*
X136637780Y-68381523D01*
X136637780Y-68762476D02*
X136637780Y-69381523D01*
X137018733Y-69048190D01*
X137018733Y-69191047D01*
X137066352Y-69286285D01*
X137113971Y-69333904D01*
X137209209Y-69381523D01*
X137447304Y-69381523D01*
X137542542Y-69333904D01*
X137590161Y-69286285D01*
X137637780Y-69191047D01*
X137637780Y-68905333D01*
X137590161Y-68810095D01*
X137542542Y-68762476D01*
%TO.C,U1*%
X147208380Y-40962095D02*
X148017904Y-40962095D01*
X148113142Y-41009714D01*
X148160761Y-41057333D01*
X148208380Y-41152571D01*
X148208380Y-41343047D01*
X148160761Y-41438285D01*
X148113142Y-41485904D01*
X148017904Y-41533523D01*
X147208380Y-41533523D01*
X148208380Y-42533523D02*
X148208380Y-41962095D01*
X148208380Y-42247809D02*
X147208380Y-42247809D01*
X147351238Y-42152571D01*
X147446476Y-42057333D01*
X147494095Y-41962095D01*
%TD*%
M02*
