%TF.GenerationSoftware,KiCad,Pcbnew,5.1.9-73d0e3b20d~88~ubuntu20.04.1*%
%TF.CreationDate,2021-01-20T22:49:51-06:00*%
%TF.ProjectId,control_board,636f6e74-726f-46c5-9f62-6f6172642e6b,rev?*%
%TF.SameCoordinates,Original*%
%TF.FileFunction,Legend,Top*%
%TF.FilePolarity,Positive*%
%FSLAX46Y46*%
G04 Gerber Fmt 4.6, Leading zero omitted, Abs format (unit mm)*
G04 Created by KiCad (PCBNEW 5.1.9-73d0e3b20d~88~ubuntu20.04.1) date 2021-01-20 22:49:51*
%MOMM*%
%LPD*%
G01*
G04 APERTURE LIST*
%ADD10C,0.150000*%
%ADD11C,0.120000*%
G04 APERTURE END LIST*
D10*
X156655761Y-80076380D02*
X156655761Y-79409714D01*
X156655761Y-79600190D02*
X156703380Y-79504952D01*
X156751000Y-79457333D01*
X156846238Y-79409714D01*
X156941476Y-79409714D01*
X157655761Y-80028761D02*
X157560523Y-80076380D01*
X157370047Y-80076380D01*
X157274809Y-80028761D01*
X157227190Y-79933523D01*
X157227190Y-79552571D01*
X157274809Y-79457333D01*
X157370047Y-79409714D01*
X157560523Y-79409714D01*
X157655761Y-79457333D01*
X157703380Y-79552571D01*
X157703380Y-79647809D01*
X157227190Y-79743047D01*
X158274809Y-80076380D02*
X158179571Y-80028761D01*
X158131952Y-79933523D01*
X158131952Y-79076380D01*
X159084333Y-80076380D02*
X159084333Y-79552571D01*
X159036714Y-79457333D01*
X158941476Y-79409714D01*
X158751000Y-79409714D01*
X158655761Y-79457333D01*
X159084333Y-80028761D02*
X158989095Y-80076380D01*
X158751000Y-80076380D01*
X158655761Y-80028761D01*
X158608142Y-79933523D01*
X158608142Y-79838285D01*
X158655761Y-79743047D01*
X158751000Y-79695428D01*
X158989095Y-79695428D01*
X159084333Y-79647809D01*
X159465285Y-79409714D02*
X159703380Y-80076380D01*
X159941476Y-79409714D02*
X159703380Y-80076380D01*
X159608142Y-80314476D01*
X159560523Y-80362095D01*
X159465285Y-80409714D01*
X157661571Y-70556380D02*
X157090142Y-70556380D01*
X157375857Y-70556380D02*
X157375857Y-69556380D01*
X157280619Y-69699238D01*
X157185380Y-69794476D01*
X157090142Y-69842095D01*
X158042523Y-69651619D02*
X158090142Y-69604000D01*
X158185380Y-69556380D01*
X158423476Y-69556380D01*
X158518714Y-69604000D01*
X158566333Y-69651619D01*
X158613952Y-69746857D01*
X158613952Y-69842095D01*
X158566333Y-69984952D01*
X157994904Y-70556380D01*
X158613952Y-70556380D01*
X158947285Y-69889714D02*
X159185380Y-70556380D01*
X159423476Y-69889714D01*
X156780619Y-74316380D02*
X157018714Y-75316380D01*
X157209190Y-74602095D01*
X157399666Y-75316380D01*
X157637761Y-74316380D01*
X158018714Y-75316380D02*
X158018714Y-74316380D01*
X158256809Y-74316380D01*
X158399666Y-74364000D01*
X158494904Y-74459238D01*
X158542523Y-74554476D01*
X158590142Y-74744952D01*
X158590142Y-74887809D01*
X158542523Y-75078285D01*
X158494904Y-75173523D01*
X158399666Y-75268761D01*
X158256809Y-75316380D01*
X158018714Y-75316380D01*
X159209190Y-74316380D02*
X159399666Y-74316380D01*
X159494904Y-74364000D01*
X159590142Y-74459238D01*
X159637761Y-74649714D01*
X159637761Y-74983047D01*
X159590142Y-75173523D01*
X159494904Y-75268761D01*
X159399666Y-75316380D01*
X159209190Y-75316380D01*
X159113952Y-75268761D01*
X159018714Y-75173523D01*
X158971095Y-74983047D01*
X158971095Y-74649714D01*
X159018714Y-74459238D01*
X159113952Y-74364000D01*
X159209190Y-74316380D01*
X156301514Y-94069990D02*
X157111038Y-94069990D01*
X157206276Y-94117609D01*
X157253895Y-94165228D01*
X157301514Y-94260466D01*
X157301514Y-94403323D01*
X157253895Y-94498561D01*
X156920561Y-94069990D02*
X156968180Y-94165228D01*
X156968180Y-94355704D01*
X156920561Y-94450942D01*
X156872942Y-94498561D01*
X156777704Y-94546180D01*
X156491990Y-94546180D01*
X156396752Y-94498561D01*
X156349133Y-94450942D01*
X156301514Y-94355704D01*
X156301514Y-94165228D01*
X156349133Y-94069990D01*
X156968180Y-93593800D02*
X156301514Y-93593800D01*
X155968180Y-93593800D02*
X156015800Y-93641419D01*
X156063419Y-93593800D01*
X156015800Y-93546180D01*
X155968180Y-93593800D01*
X156063419Y-93593800D01*
X156301514Y-93260466D02*
X156301514Y-92879514D01*
X155968180Y-93117609D02*
X156825323Y-93117609D01*
X156920561Y-93069990D01*
X156968180Y-92974752D01*
X156968180Y-92879514D01*
X156968180Y-92546180D02*
X155968180Y-92546180D01*
X156968180Y-92117609D02*
X156444371Y-92117609D01*
X156349133Y-92165228D01*
X156301514Y-92260466D01*
X156301514Y-92403323D01*
X156349133Y-92498561D01*
X156396752Y-92546180D01*
X156301514Y-91212847D02*
X156968180Y-91212847D01*
X156301514Y-91641419D02*
X156825323Y-91641419D01*
X156920561Y-91593800D01*
X156968180Y-91498561D01*
X156968180Y-91355704D01*
X156920561Y-91260466D01*
X156872942Y-91212847D01*
X156968180Y-90736657D02*
X155968180Y-90736657D01*
X156349133Y-90736657D02*
X156301514Y-90641419D01*
X156301514Y-90450942D01*
X156349133Y-90355704D01*
X156396752Y-90308085D01*
X156491990Y-90260466D01*
X156777704Y-90260466D01*
X156872942Y-90308085D01*
X156920561Y-90355704D01*
X156968180Y-90450942D01*
X156968180Y-90641419D01*
X156920561Y-90736657D01*
X156872942Y-89831895D02*
X156920561Y-89784276D01*
X156968180Y-89831895D01*
X156920561Y-89879514D01*
X156872942Y-89831895D01*
X156968180Y-89831895D01*
X156920561Y-88927133D02*
X156968180Y-89022371D01*
X156968180Y-89212847D01*
X156920561Y-89308085D01*
X156872942Y-89355704D01*
X156777704Y-89403323D01*
X156491990Y-89403323D01*
X156396752Y-89355704D01*
X156349133Y-89308085D01*
X156301514Y-89212847D01*
X156301514Y-89022371D01*
X156349133Y-88927133D01*
X156968180Y-88355704D02*
X156920561Y-88450942D01*
X156872942Y-88498561D01*
X156777704Y-88546180D01*
X156491990Y-88546180D01*
X156396752Y-88498561D01*
X156349133Y-88450942D01*
X156301514Y-88355704D01*
X156301514Y-88212847D01*
X156349133Y-88117609D01*
X156396752Y-88069990D01*
X156491990Y-88022371D01*
X156777704Y-88022371D01*
X156872942Y-88069990D01*
X156920561Y-88117609D01*
X156968180Y-88212847D01*
X156968180Y-88355704D01*
X156968180Y-87593800D02*
X156301514Y-87593800D01*
X156396752Y-87593800D02*
X156349133Y-87546180D01*
X156301514Y-87450942D01*
X156301514Y-87308085D01*
X156349133Y-87212847D01*
X156444371Y-87165228D01*
X156968180Y-87165228D01*
X156444371Y-87165228D02*
X156349133Y-87117609D01*
X156301514Y-87022371D01*
X156301514Y-86879514D01*
X156349133Y-86784276D01*
X156444371Y-86736657D01*
X156968180Y-86736657D01*
X155920561Y-85546180D02*
X157206276Y-86403323D01*
X158094371Y-92427133D02*
X158094371Y-92760466D01*
X158618180Y-92760466D02*
X157618180Y-92760466D01*
X157618180Y-92284276D01*
X158618180Y-91903323D02*
X157951514Y-91903323D01*
X158141990Y-91903323D02*
X158046752Y-91855704D01*
X157999133Y-91808085D01*
X157951514Y-91712847D01*
X157951514Y-91617609D01*
X158618180Y-91284276D02*
X157951514Y-91284276D01*
X157618180Y-91284276D02*
X157665800Y-91331895D01*
X157713419Y-91284276D01*
X157665800Y-91236657D01*
X157618180Y-91284276D01*
X157713419Y-91284276D01*
X158570561Y-90427133D02*
X158618180Y-90522371D01*
X158618180Y-90712847D01*
X158570561Y-90808085D01*
X158475323Y-90855704D01*
X158094371Y-90855704D01*
X157999133Y-90808085D01*
X157951514Y-90712847D01*
X157951514Y-90522371D01*
X157999133Y-90427133D01*
X158094371Y-90379514D01*
X158189609Y-90379514D01*
X158284847Y-90855704D01*
X158570561Y-89998561D02*
X158618180Y-89903323D01*
X158618180Y-89712847D01*
X158570561Y-89617609D01*
X158475323Y-89569990D01*
X158427704Y-89569990D01*
X158332466Y-89617609D01*
X158284847Y-89712847D01*
X158284847Y-89855704D01*
X158237228Y-89950942D01*
X158141990Y-89998561D01*
X158094371Y-89998561D01*
X157999133Y-89950942D01*
X157951514Y-89855704D01*
X157951514Y-89712847D01*
X157999133Y-89617609D01*
X157618180Y-89236657D02*
X158618180Y-88998561D01*
X157903895Y-88808085D01*
X158618180Y-88617609D01*
X157618180Y-88379514D01*
X157570561Y-87284276D02*
X158856276Y-88141419D01*
X160220561Y-96379514D02*
X160268180Y-96284276D01*
X160268180Y-96093800D01*
X160220561Y-95998561D01*
X160125323Y-95950942D01*
X160077704Y-95950942D01*
X159982466Y-95998561D01*
X159934847Y-96093800D01*
X159934847Y-96236657D01*
X159887228Y-96331895D01*
X159791990Y-96379514D01*
X159744371Y-96379514D01*
X159649133Y-96331895D01*
X159601514Y-96236657D01*
X159601514Y-96093800D01*
X159649133Y-95998561D01*
X160268180Y-95093800D02*
X159744371Y-95093800D01*
X159649133Y-95141419D01*
X159601514Y-95236657D01*
X159601514Y-95427133D01*
X159649133Y-95522371D01*
X160220561Y-95093800D02*
X160268180Y-95189038D01*
X160268180Y-95427133D01*
X160220561Y-95522371D01*
X160125323Y-95569990D01*
X160030085Y-95569990D01*
X159934847Y-95522371D01*
X159887228Y-95427133D01*
X159887228Y-95189038D01*
X159839609Y-95093800D01*
X159601514Y-94189038D02*
X160268180Y-94189038D01*
X159601514Y-94617609D02*
X160125323Y-94617609D01*
X160220561Y-94569990D01*
X160268180Y-94474752D01*
X160268180Y-94331895D01*
X160220561Y-94236657D01*
X160172942Y-94189038D01*
X159601514Y-93712847D02*
X160268180Y-93712847D01*
X159696752Y-93712847D02*
X159649133Y-93665228D01*
X159601514Y-93569990D01*
X159601514Y-93427133D01*
X159649133Y-93331895D01*
X159744371Y-93284276D01*
X160268180Y-93284276D01*
X160268180Y-92379514D02*
X159744371Y-92379514D01*
X159649133Y-92427133D01*
X159601514Y-92522371D01*
X159601514Y-92712847D01*
X159649133Y-92808085D01*
X160220561Y-92379514D02*
X160268180Y-92474752D01*
X160268180Y-92712847D01*
X160220561Y-92808085D01*
X160125323Y-92855704D01*
X160030085Y-92855704D01*
X159934847Y-92808085D01*
X159887228Y-92712847D01*
X159887228Y-92474752D01*
X159839609Y-92379514D01*
X159887228Y-91903323D02*
X159887228Y-91141419D01*
X160220561Y-90236657D02*
X160268180Y-90331895D01*
X160268180Y-90522371D01*
X160220561Y-90617609D01*
X160172942Y-90665228D01*
X160077704Y-90712847D01*
X159791990Y-90712847D01*
X159696752Y-90665228D01*
X159649133Y-90617609D01*
X159601514Y-90522371D01*
X159601514Y-90331895D01*
X159649133Y-90236657D01*
X160268180Y-89665228D02*
X160220561Y-89760466D01*
X160172942Y-89808085D01*
X160077704Y-89855704D01*
X159791990Y-89855704D01*
X159696752Y-89808085D01*
X159649133Y-89760466D01*
X159601514Y-89665228D01*
X159601514Y-89522371D01*
X159649133Y-89427133D01*
X159696752Y-89379514D01*
X159791990Y-89331895D01*
X160077704Y-89331895D01*
X160172942Y-89379514D01*
X160220561Y-89427133D01*
X160268180Y-89522371D01*
X160268180Y-89665228D01*
X159601514Y-88903323D02*
X160268180Y-88903323D01*
X159696752Y-88903323D02*
X159649133Y-88855704D01*
X159601514Y-88760466D01*
X159601514Y-88617609D01*
X159649133Y-88522371D01*
X159744371Y-88474752D01*
X160268180Y-88474752D01*
X159601514Y-88141419D02*
X159601514Y-87760466D01*
X159268180Y-87998561D02*
X160125323Y-87998561D01*
X160220561Y-87950942D01*
X160268180Y-87855704D01*
X160268180Y-87760466D01*
X160268180Y-87427133D02*
X159601514Y-87427133D01*
X159791990Y-87427133D02*
X159696752Y-87379514D01*
X159649133Y-87331895D01*
X159601514Y-87236657D01*
X159601514Y-87141419D01*
X160268180Y-86665228D02*
X160220561Y-86760466D01*
X160172942Y-86808085D01*
X160077704Y-86855704D01*
X159791990Y-86855704D01*
X159696752Y-86808085D01*
X159649133Y-86760466D01*
X159601514Y-86665228D01*
X159601514Y-86522371D01*
X159649133Y-86427133D01*
X159696752Y-86379514D01*
X159791990Y-86331895D01*
X160077704Y-86331895D01*
X160172942Y-86379514D01*
X160220561Y-86427133D01*
X160268180Y-86522371D01*
X160268180Y-86665228D01*
X160268180Y-85760466D02*
X160220561Y-85855704D01*
X160125323Y-85903323D01*
X159268180Y-85903323D01*
X160268180Y-85236657D02*
X160220561Y-85331895D01*
X160125323Y-85379514D01*
X159268180Y-85379514D01*
X160220561Y-84474752D02*
X160268180Y-84569990D01*
X160268180Y-84760466D01*
X160220561Y-84855704D01*
X160125323Y-84903323D01*
X159744371Y-84903323D01*
X159649133Y-84855704D01*
X159601514Y-84760466D01*
X159601514Y-84569990D01*
X159649133Y-84474752D01*
X159744371Y-84427133D01*
X159839609Y-84427133D01*
X159934847Y-84903323D01*
X160268180Y-83998561D02*
X159601514Y-83998561D01*
X159791990Y-83998561D02*
X159696752Y-83950942D01*
X159649133Y-83903323D01*
X159601514Y-83808085D01*
X159601514Y-83712847D01*
X113702580Y-67247495D02*
X114702580Y-67009400D01*
X113988295Y-66818923D01*
X114702580Y-66628447D01*
X113702580Y-66390352D01*
X114702580Y-66009400D02*
X114035914Y-66009400D01*
X113702580Y-66009400D02*
X113750200Y-66057019D01*
X113797819Y-66009400D01*
X113750200Y-65961780D01*
X113702580Y-66009400D01*
X113797819Y-66009400D01*
X114702580Y-65390352D02*
X114654961Y-65485590D01*
X114559723Y-65533209D01*
X113702580Y-65533209D01*
X114702580Y-64866542D02*
X114654961Y-64961780D01*
X114559723Y-65009400D01*
X113702580Y-65009400D01*
X114702580Y-64485590D02*
X114035914Y-64485590D01*
X113702580Y-64485590D02*
X113750200Y-64533209D01*
X113797819Y-64485590D01*
X113750200Y-64437971D01*
X113702580Y-64485590D01*
X113797819Y-64485590D01*
X114702580Y-63580828D02*
X114178771Y-63580828D01*
X114083533Y-63628447D01*
X114035914Y-63723685D01*
X114035914Y-63914161D01*
X114083533Y-64009400D01*
X114654961Y-63580828D02*
X114702580Y-63676066D01*
X114702580Y-63914161D01*
X114654961Y-64009400D01*
X114559723Y-64057019D01*
X114464485Y-64057019D01*
X114369247Y-64009400D01*
X114321628Y-63914161D01*
X114321628Y-63676066D01*
X114274009Y-63580828D01*
X114702580Y-63104638D02*
X114035914Y-63104638D01*
X114131152Y-63104638D02*
X114083533Y-63057019D01*
X114035914Y-62961780D01*
X114035914Y-62818923D01*
X114083533Y-62723685D01*
X114178771Y-62676066D01*
X114702580Y-62676066D01*
X114178771Y-62676066D02*
X114083533Y-62628447D01*
X114035914Y-62533209D01*
X114035914Y-62390352D01*
X114083533Y-62295114D01*
X114178771Y-62247495D01*
X114702580Y-62247495D01*
X114178771Y-60676066D02*
X114178771Y-61009400D01*
X114702580Y-61009400D02*
X113702580Y-61009400D01*
X113702580Y-60533209D01*
X114702580Y-60152257D02*
X114035914Y-60152257D01*
X114226390Y-60152257D02*
X114131152Y-60104638D01*
X114083533Y-60057019D01*
X114035914Y-59961780D01*
X114035914Y-59866542D01*
X114702580Y-59533209D02*
X114035914Y-59533209D01*
X113702580Y-59533209D02*
X113750200Y-59580828D01*
X113797819Y-59533209D01*
X113750200Y-59485590D01*
X113702580Y-59533209D01*
X113797819Y-59533209D01*
X114654961Y-58676066D02*
X114702580Y-58771304D01*
X114702580Y-58961780D01*
X114654961Y-59057019D01*
X114559723Y-59104638D01*
X114178771Y-59104638D01*
X114083533Y-59057019D01*
X114035914Y-58961780D01*
X114035914Y-58771304D01*
X114083533Y-58676066D01*
X114178771Y-58628447D01*
X114274009Y-58628447D01*
X114369247Y-59104638D01*
X114654961Y-58247495D02*
X114702580Y-58152257D01*
X114702580Y-57961780D01*
X114654961Y-57866542D01*
X114559723Y-57818923D01*
X114512104Y-57818923D01*
X114416866Y-57866542D01*
X114369247Y-57961780D01*
X114369247Y-58104638D01*
X114321628Y-58199876D01*
X114226390Y-58247495D01*
X114178771Y-58247495D01*
X114083533Y-58199876D01*
X114035914Y-58104638D01*
X114035914Y-57961780D01*
X114083533Y-57866542D01*
X115447819Y-64223685D02*
X115400200Y-64176066D01*
X115352580Y-64080828D01*
X115352580Y-63842733D01*
X115400200Y-63747495D01*
X115447819Y-63699876D01*
X115543057Y-63652257D01*
X115638295Y-63652257D01*
X115781152Y-63699876D01*
X116352580Y-64271304D01*
X116352580Y-63652257D01*
X115352580Y-63033209D02*
X115352580Y-62937971D01*
X115400200Y-62842733D01*
X115447819Y-62795114D01*
X115543057Y-62747495D01*
X115733533Y-62699876D01*
X115971628Y-62699876D01*
X116162104Y-62747495D01*
X116257342Y-62795114D01*
X116304961Y-62842733D01*
X116352580Y-62937971D01*
X116352580Y-63033209D01*
X116304961Y-63128447D01*
X116257342Y-63176066D01*
X116162104Y-63223685D01*
X115971628Y-63271304D01*
X115733533Y-63271304D01*
X115543057Y-63223685D01*
X115447819Y-63176066D01*
X115400200Y-63128447D01*
X115352580Y-63033209D01*
X115447819Y-62318923D02*
X115400200Y-62271304D01*
X115352580Y-62176066D01*
X115352580Y-61937971D01*
X115400200Y-61842733D01*
X115447819Y-61795114D01*
X115543057Y-61747495D01*
X115638295Y-61747495D01*
X115781152Y-61795114D01*
X116352580Y-62366542D01*
X116352580Y-61747495D01*
X116352580Y-60795114D02*
X116352580Y-61366542D01*
X116352580Y-61080828D02*
X115352580Y-61080828D01*
X115495438Y-61176066D01*
X115590676Y-61271304D01*
X115638295Y-61366542D01*
X118002580Y-63866542D02*
X117526390Y-64199876D01*
X118002580Y-64437971D02*
X117002580Y-64437971D01*
X117002580Y-64057019D01*
X117050200Y-63961780D01*
X117097819Y-63914161D01*
X117193057Y-63866542D01*
X117335914Y-63866542D01*
X117431152Y-63914161D01*
X117478771Y-63961780D01*
X117526390Y-64057019D01*
X117526390Y-64437971D01*
X117954961Y-63057019D02*
X118002580Y-63152257D01*
X118002580Y-63342733D01*
X117954961Y-63437971D01*
X117859723Y-63485590D01*
X117478771Y-63485590D01*
X117383533Y-63437971D01*
X117335914Y-63342733D01*
X117335914Y-63152257D01*
X117383533Y-63057019D01*
X117478771Y-63009400D01*
X117574009Y-63009400D01*
X117669247Y-63485590D01*
X117335914Y-62676066D02*
X118002580Y-62437971D01*
X117335914Y-62199876D01*
X118002580Y-60533209D02*
X118002580Y-61104638D01*
X118002580Y-60818923D02*
X117002580Y-60818923D01*
X117145438Y-60914161D01*
X117240676Y-61009400D01*
X117288295Y-61104638D01*
D11*
%TO.C,F1*%
X137605000Y-36660000D02*
X137605000Y-34780000D01*
X137605000Y-34780000D02*
X157845000Y-34780000D01*
X157845000Y-34780000D02*
X157845000Y-36660000D01*
X137605000Y-39540000D02*
X137605000Y-41420000D01*
X137605000Y-41420000D02*
X157845000Y-41420000D01*
X157845000Y-41420000D02*
X157845000Y-39540000D01*
%TO.C,A1*%
X117218000Y-81404000D02*
X117218000Y-99444000D01*
X160658000Y-81404000D02*
X117218000Y-81404000D01*
X160658000Y-99444000D02*
X160658000Y-81404000D01*
X157988000Y-96774000D02*
X157988000Y-99444000D01*
X122428000Y-96774000D02*
X157988000Y-96774000D01*
X122428000Y-96774000D02*
X122428000Y-99444000D01*
X157988000Y-84074000D02*
X157988000Y-81404000D01*
X119888000Y-84074000D02*
X157988000Y-84074000D01*
X119888000Y-84074000D02*
X119888000Y-81404000D01*
X117218000Y-99444000D02*
X119888000Y-99444000D01*
X122428000Y-99444000D02*
X160658000Y-99444000D01*
X119888000Y-96774000D02*
X119888000Y-99444000D01*
X122428000Y-96774000D02*
X119888000Y-96774000D01*
%TO.C,C3*%
X114969000Y-71037000D02*
X114969000Y-72287000D01*
X114344000Y-71662000D02*
X115594000Y-71662000D01*
X115834000Y-78617563D02*
X116898437Y-79682000D01*
X115834000Y-70226437D02*
X116898437Y-69162000D01*
X115834000Y-70226437D02*
X115834000Y-72912000D01*
X115834000Y-78617563D02*
X115834000Y-75932000D01*
X116898437Y-79682000D02*
X126354000Y-79682000D01*
X116898437Y-69162000D02*
X126354000Y-69162000D01*
X126354000Y-69162000D02*
X126354000Y-72912000D01*
X126354000Y-79682000D02*
X126354000Y-75932000D01*
%TO.C,C4*%
X141317000Y-77807000D02*
X141317000Y-76557000D01*
X141942000Y-77182000D02*
X140692000Y-77182000D01*
X140452000Y-70226437D02*
X139387563Y-69162000D01*
X140452000Y-78617563D02*
X139387563Y-79682000D01*
X140452000Y-78617563D02*
X140452000Y-75932000D01*
X140452000Y-70226437D02*
X140452000Y-72912000D01*
X139387563Y-69162000D02*
X129932000Y-69162000D01*
X139387563Y-79682000D02*
X129932000Y-79682000D01*
X129932000Y-79682000D02*
X129932000Y-75932000D01*
X129932000Y-69162000D02*
X129932000Y-72912000D01*
%TO.C,C1*%
X122076000Y-51122000D02*
X122076000Y-53122000D01*
X121076000Y-52122000D02*
X123076000Y-52122000D01*
X123316000Y-66527563D02*
X124380437Y-67592000D01*
X123316000Y-51836437D02*
X124380437Y-50772000D01*
X123316000Y-51836437D02*
X123316000Y-54122000D01*
X123316000Y-66527563D02*
X123316000Y-64242000D01*
X124380437Y-67592000D02*
X140136000Y-67592000D01*
X124380437Y-50772000D02*
X140136000Y-50772000D01*
X140136000Y-50772000D02*
X140136000Y-54122000D01*
X140136000Y-67592000D02*
X140136000Y-64242000D01*
%TO.C,C2*%
X121592000Y-42936000D02*
X117842000Y-42936000D01*
X111072000Y-42936000D02*
X114822000Y-42936000D01*
X111072000Y-52391563D02*
X111072000Y-42936000D01*
X121592000Y-52391563D02*
X121592000Y-42936000D01*
X120527563Y-53456000D02*
X117842000Y-53456000D01*
X112136437Y-53456000D02*
X114822000Y-53456000D01*
X112136437Y-53456000D02*
X111072000Y-52391563D01*
X120527563Y-53456000D02*
X121592000Y-52391563D01*
X113572000Y-54946000D02*
X113572000Y-53696000D01*
X112947000Y-54321000D02*
X114197000Y-54321000D01*
%TO.C,C5*%
X139946748Y-84609000D02*
X140469252Y-84609000D01*
X139946748Y-86079000D02*
X140469252Y-86079000D01*
%TO.C,C6*%
X129786748Y-86079000D02*
X130309252Y-86079000D01*
X129786748Y-84609000D02*
X130309252Y-84609000D01*
%TO.C,C7*%
X150903000Y-86331248D02*
X150903000Y-86853752D01*
X152373000Y-86331248D02*
X152373000Y-86853752D01*
%TO.C,C8*%
X148363000Y-86331248D02*
X148363000Y-86853752D01*
X149833000Y-86331248D02*
X149833000Y-86853752D01*
%TO.C,C9*%
X147293000Y-86331248D02*
X147293000Y-86853752D01*
X145823000Y-86331248D02*
X145823000Y-86853752D01*
%TO.C,C10*%
X143283000Y-86331248D02*
X143283000Y-86853752D01*
X144753000Y-86331248D02*
X144753000Y-86853752D01*
%TO.C,C11*%
X120367248Y-94261000D02*
X120889752Y-94261000D01*
X120367248Y-95731000D02*
X120889752Y-95731000D01*
%TO.C,D3*%
X146416000Y-78398000D02*
X149566000Y-78398000D01*
X146416000Y-80098000D02*
X149566000Y-80098000D01*
X146416000Y-78398000D02*
X146416000Y-80098000D01*
%TO.C,D4*%
X159251000Y-76764000D02*
X156391000Y-76764000D01*
X156391000Y-76764000D02*
X156391000Y-78684000D01*
X156391000Y-78684000D02*
X159251000Y-78684000D01*
%TO.C,D5*%
X156373000Y-73924000D02*
X159233000Y-73924000D01*
X156373000Y-72004000D02*
X156373000Y-73924000D01*
X159233000Y-72004000D02*
X156373000Y-72004000D01*
%TO.C,D6*%
X156373000Y-69164000D02*
X159233000Y-69164000D01*
X156373000Y-67244000D02*
X156373000Y-69164000D01*
X159233000Y-67244000D02*
X156373000Y-67244000D01*
%TO.C,F2*%
X137605000Y-44280000D02*
X137605000Y-42400000D01*
X137605000Y-42400000D02*
X157845000Y-42400000D01*
X157845000Y-42400000D02*
X157845000Y-44280000D01*
X137605000Y-47160000D02*
X137605000Y-49040000D01*
X137605000Y-49040000D02*
X157845000Y-49040000D01*
X157845000Y-49040000D02*
X157845000Y-47160000D01*
%TO.C,F6*%
X151840000Y-50468000D02*
X160580000Y-50468000D01*
X151840000Y-50468000D02*
X151840000Y-54708000D01*
X160580000Y-54708000D02*
X160580000Y-50468000D01*
X160580000Y-54708000D02*
X151840000Y-54708000D01*
%TO.C,J1*%
X160975000Y-30145000D02*
X160375000Y-29845000D01*
X160975000Y-29545000D02*
X160975000Y-30145000D01*
X160375000Y-29845000D02*
X160975000Y-29545000D01*
X128335000Y-24935000D02*
X160175000Y-24935000D01*
X128335000Y-31955000D02*
X128335000Y-24935000D01*
X129535000Y-31955000D02*
X128335000Y-31955000D01*
X129535000Y-33655000D02*
X129535000Y-31955000D01*
X158975000Y-33655000D02*
X129535000Y-33655000D01*
X158975000Y-31955000D02*
X158975000Y-33655000D01*
X160175000Y-31955000D02*
X158975000Y-31955000D01*
X160175000Y-24935000D02*
X160175000Y-31955000D01*
%TO.C,K1*%
X148717000Y-62357000D02*
G75*
G03*
X148717000Y-62357000I-127000J0D01*
G01*
X143090000Y-77372000D02*
X143090000Y-56232000D01*
X154090000Y-77372000D02*
X143090000Y-77372000D01*
X154090000Y-56232000D02*
X143090000Y-56232000D01*
X154090000Y-77372000D02*
X154090000Y-56232000D01*
X150110000Y-72642000D02*
X150110000Y-73152000D01*
X147570000Y-72642000D02*
X150110000Y-72642000D01*
X147570000Y-73152000D02*
X147570000Y-72642000D01*
X147570000Y-73662000D02*
X147570000Y-73152000D01*
X150110000Y-73662000D02*
X147570000Y-73662000D01*
X150110000Y-73152000D02*
X150110000Y-73662000D01*
X152400000Y-74422000D02*
X152400000Y-73152000D01*
X152400000Y-73152000D02*
X150110000Y-73152000D01*
X147570000Y-73152000D02*
X144780000Y-73152000D01*
X144780000Y-73152000D02*
X144780000Y-74422000D01*
X149350000Y-73662000D02*
X148340000Y-72642000D01*
X148590000Y-65532000D02*
X148590000Y-62357000D01*
X151130000Y-65532000D02*
X148590000Y-65532000D01*
X146050000Y-60452000D02*
X147320000Y-60452000D01*
X148590000Y-62357000D02*
X146050000Y-58547000D01*
X151130000Y-57912000D02*
X148590000Y-57912000D01*
%TO.C,L1*%
X122584000Y-38487000D02*
X124084000Y-38487000D01*
X122584000Y-45887000D02*
X124084000Y-45887000D01*
X122584000Y-38487000D02*
X122584000Y-45887000D01*
X129384000Y-45887000D02*
X127884000Y-45887000D01*
X129384000Y-38487000D02*
X127884000Y-38487000D01*
X129384000Y-45887000D02*
X129384000Y-38487000D01*
D10*
%TO.C,RV1*%
X134162660Y-42068000D02*
X134162660Y-35068000D01*
X130562660Y-42068000D02*
X130562660Y-35068000D01*
X130562660Y-35068000D02*
X134162660Y-35068000D01*
X130562660Y-42068000D02*
X134162660Y-42068000D01*
D11*
%TO.C,TH1*%
X115688000Y-95454000D02*
X115688000Y-98104000D01*
X111388000Y-95454000D02*
X111388000Y-98104000D01*
X115672388Y-95428524D02*
G75*
G03*
X111388000Y-95454000I-2134388J-1325476D01*
G01*
X111405856Y-98132027D02*
G75*
G03*
X115688000Y-98104000I2132144J1378027D01*
G01*
%TO.C,U2*%
X126760000Y-24938000D02*
X126760000Y-26178000D01*
X125520000Y-24938000D02*
X126760000Y-24938000D01*
X126520000Y-36798000D02*
X117900000Y-36798000D01*
X126520000Y-25178000D02*
X117900000Y-25178000D01*
X117900000Y-25178000D02*
X117900000Y-36798000D01*
X126520000Y-25178000D02*
X126520000Y-36798000D01*
%TO.C,U3*%
X138495000Y-87005000D02*
X136545000Y-87005000D01*
X138495000Y-87005000D02*
X140445000Y-87005000D01*
X138495000Y-95875000D02*
X136545000Y-95875000D01*
X138495000Y-95875000D02*
X141945000Y-95875000D01*
%TO.C,U4*%
X128589000Y-95875000D02*
X132039000Y-95875000D01*
X128589000Y-95875000D02*
X126639000Y-95875000D01*
X128589000Y-87005000D02*
X130539000Y-87005000D01*
X128589000Y-87005000D02*
X126639000Y-87005000D01*
%TO.C,U5*%
X118217000Y-90105000D02*
X118217000Y-93555000D01*
X118217000Y-90105000D02*
X118217000Y-88155000D01*
X123337000Y-90105000D02*
X123337000Y-92055000D01*
X123337000Y-90105000D02*
X123337000Y-88155000D01*
%TO.C,F1*%
D10*
X147494666Y-38028571D02*
X147161333Y-38028571D01*
X147161333Y-38552380D02*
X147161333Y-37552380D01*
X147637523Y-37552380D01*
X148542285Y-38552380D02*
X147970857Y-38552380D01*
X148256571Y-38552380D02*
X148256571Y-37552380D01*
X148161333Y-37695238D01*
X148066095Y-37790476D01*
X147970857Y-37838095D01*
%TO.C,C3*%
X120927333Y-68579142D02*
X120879714Y-68626761D01*
X120736857Y-68674380D01*
X120641619Y-68674380D01*
X120498761Y-68626761D01*
X120403523Y-68531523D01*
X120355904Y-68436285D01*
X120308285Y-68245809D01*
X120308285Y-68102952D01*
X120355904Y-67912476D01*
X120403523Y-67817238D01*
X120498761Y-67722000D01*
X120641619Y-67674380D01*
X120736857Y-67674380D01*
X120879714Y-67722000D01*
X120927333Y-67769619D01*
X121260666Y-67674380D02*
X121879714Y-67674380D01*
X121546380Y-68055333D01*
X121689238Y-68055333D01*
X121784476Y-68102952D01*
X121832095Y-68150571D01*
X121879714Y-68245809D01*
X121879714Y-68483904D01*
X121832095Y-68579142D01*
X121784476Y-68626761D01*
X121689238Y-68674380D01*
X121403523Y-68674380D01*
X121308285Y-68626761D01*
X121260666Y-68579142D01*
%TO.C,C4*%
X135025333Y-80979142D02*
X134977714Y-81026761D01*
X134834857Y-81074380D01*
X134739619Y-81074380D01*
X134596761Y-81026761D01*
X134501523Y-80931523D01*
X134453904Y-80836285D01*
X134406285Y-80645809D01*
X134406285Y-80502952D01*
X134453904Y-80312476D01*
X134501523Y-80217238D01*
X134596761Y-80122000D01*
X134739619Y-80074380D01*
X134834857Y-80074380D01*
X134977714Y-80122000D01*
X135025333Y-80169619D01*
X135882476Y-80407714D02*
X135882476Y-81074380D01*
X135644380Y-80026761D02*
X135406285Y-80741047D01*
X136025333Y-80741047D01*
%TO.C,C1*%
X131559333Y-50189142D02*
X131511714Y-50236761D01*
X131368857Y-50284380D01*
X131273619Y-50284380D01*
X131130761Y-50236761D01*
X131035523Y-50141523D01*
X130987904Y-50046285D01*
X130940285Y-49855809D01*
X130940285Y-49712952D01*
X130987904Y-49522476D01*
X131035523Y-49427238D01*
X131130761Y-49332000D01*
X131273619Y-49284380D01*
X131368857Y-49284380D01*
X131511714Y-49332000D01*
X131559333Y-49379619D01*
X132511714Y-50284380D02*
X131940285Y-50284380D01*
X132226000Y-50284380D02*
X132226000Y-49284380D01*
X132130761Y-49427238D01*
X132035523Y-49522476D01*
X131940285Y-49570095D01*
%TO.C,C2*%
X116165333Y-55729142D02*
X116117714Y-55776761D01*
X115974857Y-55824380D01*
X115879619Y-55824380D01*
X115736761Y-55776761D01*
X115641523Y-55681523D01*
X115593904Y-55586285D01*
X115546285Y-55395809D01*
X115546285Y-55252952D01*
X115593904Y-55062476D01*
X115641523Y-54967238D01*
X115736761Y-54872000D01*
X115879619Y-54824380D01*
X115974857Y-54824380D01*
X116117714Y-54872000D01*
X116165333Y-54919619D01*
X116546285Y-54919619D02*
X116593904Y-54872000D01*
X116689142Y-54824380D01*
X116927238Y-54824380D01*
X117022476Y-54872000D01*
X117070095Y-54919619D01*
X117117714Y-55014857D01*
X117117714Y-55110095D01*
X117070095Y-55252952D01*
X116498666Y-55824380D01*
X117117714Y-55824380D01*
%TO.C,C5*%
X138025142Y-85891666D02*
X138072761Y-85939285D01*
X138120380Y-86082142D01*
X138120380Y-86177380D01*
X138072761Y-86320238D01*
X137977523Y-86415476D01*
X137882285Y-86463095D01*
X137691809Y-86510714D01*
X137548952Y-86510714D01*
X137358476Y-86463095D01*
X137263238Y-86415476D01*
X137168000Y-86320238D01*
X137120380Y-86177380D01*
X137120380Y-86082142D01*
X137168000Y-85939285D01*
X137215619Y-85891666D01*
X137120380Y-84986904D02*
X137120380Y-85463095D01*
X137596571Y-85510714D01*
X137548952Y-85463095D01*
X137501333Y-85367857D01*
X137501333Y-85129761D01*
X137548952Y-85034523D01*
X137596571Y-84986904D01*
X137691809Y-84939285D01*
X137929904Y-84939285D01*
X138025142Y-84986904D01*
X138072761Y-85034523D01*
X138120380Y-85129761D01*
X138120380Y-85367857D01*
X138072761Y-85463095D01*
X138025142Y-85510714D01*
%TO.C,C6*%
X127865142Y-85891666D02*
X127912761Y-85939285D01*
X127960380Y-86082142D01*
X127960380Y-86177380D01*
X127912761Y-86320238D01*
X127817523Y-86415476D01*
X127722285Y-86463095D01*
X127531809Y-86510714D01*
X127388952Y-86510714D01*
X127198476Y-86463095D01*
X127103238Y-86415476D01*
X127008000Y-86320238D01*
X126960380Y-86177380D01*
X126960380Y-86082142D01*
X127008000Y-85939285D01*
X127055619Y-85891666D01*
X126960380Y-85034523D02*
X126960380Y-85225000D01*
X127008000Y-85320238D01*
X127055619Y-85367857D01*
X127198476Y-85463095D01*
X127388952Y-85510714D01*
X127769904Y-85510714D01*
X127865142Y-85463095D01*
X127912761Y-85415476D01*
X127960380Y-85320238D01*
X127960380Y-85129761D01*
X127912761Y-85034523D01*
X127865142Y-84986904D01*
X127769904Y-84939285D01*
X127531809Y-84939285D01*
X127436571Y-84986904D01*
X127388952Y-85034523D01*
X127341333Y-85129761D01*
X127341333Y-85320238D01*
X127388952Y-85415476D01*
X127436571Y-85463095D01*
X127531809Y-85510714D01*
%TO.C,C7*%
X152122142Y-89701666D02*
X152169761Y-89749285D01*
X152217380Y-89892142D01*
X152217380Y-89987380D01*
X152169761Y-90130238D01*
X152074523Y-90225476D01*
X151979285Y-90273095D01*
X151788809Y-90320714D01*
X151645952Y-90320714D01*
X151455476Y-90273095D01*
X151360238Y-90225476D01*
X151265000Y-90130238D01*
X151217380Y-89987380D01*
X151217380Y-89892142D01*
X151265000Y-89749285D01*
X151312619Y-89701666D01*
X151217380Y-89368333D02*
X151217380Y-88701666D01*
X152217380Y-89130238D01*
%TO.C,C8*%
X149582142Y-89701666D02*
X149629761Y-89749285D01*
X149677380Y-89892142D01*
X149677380Y-89987380D01*
X149629761Y-90130238D01*
X149534523Y-90225476D01*
X149439285Y-90273095D01*
X149248809Y-90320714D01*
X149105952Y-90320714D01*
X148915476Y-90273095D01*
X148820238Y-90225476D01*
X148725000Y-90130238D01*
X148677380Y-89987380D01*
X148677380Y-89892142D01*
X148725000Y-89749285D01*
X148772619Y-89701666D01*
X149105952Y-89130238D02*
X149058333Y-89225476D01*
X149010714Y-89273095D01*
X148915476Y-89320714D01*
X148867857Y-89320714D01*
X148772619Y-89273095D01*
X148725000Y-89225476D01*
X148677380Y-89130238D01*
X148677380Y-88939761D01*
X148725000Y-88844523D01*
X148772619Y-88796904D01*
X148867857Y-88749285D01*
X148915476Y-88749285D01*
X149010714Y-88796904D01*
X149058333Y-88844523D01*
X149105952Y-88939761D01*
X149105952Y-89130238D01*
X149153571Y-89225476D01*
X149201190Y-89273095D01*
X149296428Y-89320714D01*
X149486904Y-89320714D01*
X149582142Y-89273095D01*
X149629761Y-89225476D01*
X149677380Y-89130238D01*
X149677380Y-88939761D01*
X149629761Y-88844523D01*
X149582142Y-88796904D01*
X149486904Y-88749285D01*
X149296428Y-88749285D01*
X149201190Y-88796904D01*
X149153571Y-88844523D01*
X149105952Y-88939761D01*
%TO.C,C9*%
X147042142Y-89701666D02*
X147089761Y-89749285D01*
X147137380Y-89892142D01*
X147137380Y-89987380D01*
X147089761Y-90130238D01*
X146994523Y-90225476D01*
X146899285Y-90273095D01*
X146708809Y-90320714D01*
X146565952Y-90320714D01*
X146375476Y-90273095D01*
X146280238Y-90225476D01*
X146185000Y-90130238D01*
X146137380Y-89987380D01*
X146137380Y-89892142D01*
X146185000Y-89749285D01*
X146232619Y-89701666D01*
X147137380Y-89225476D02*
X147137380Y-89035000D01*
X147089761Y-88939761D01*
X147042142Y-88892142D01*
X146899285Y-88796904D01*
X146708809Y-88749285D01*
X146327857Y-88749285D01*
X146232619Y-88796904D01*
X146185000Y-88844523D01*
X146137380Y-88939761D01*
X146137380Y-89130238D01*
X146185000Y-89225476D01*
X146232619Y-89273095D01*
X146327857Y-89320714D01*
X146565952Y-89320714D01*
X146661190Y-89273095D01*
X146708809Y-89225476D01*
X146756428Y-89130238D01*
X146756428Y-88939761D01*
X146708809Y-88844523D01*
X146661190Y-88796904D01*
X146565952Y-88749285D01*
%TO.C,C10*%
X144502142Y-90812857D02*
X144549761Y-90860476D01*
X144597380Y-91003333D01*
X144597380Y-91098571D01*
X144549761Y-91241428D01*
X144454523Y-91336666D01*
X144359285Y-91384285D01*
X144168809Y-91431904D01*
X144025952Y-91431904D01*
X143835476Y-91384285D01*
X143740238Y-91336666D01*
X143645000Y-91241428D01*
X143597380Y-91098571D01*
X143597380Y-91003333D01*
X143645000Y-90860476D01*
X143692619Y-90812857D01*
X144597380Y-89860476D02*
X144597380Y-90431904D01*
X144597380Y-90146190D02*
X143597380Y-90146190D01*
X143740238Y-90241428D01*
X143835476Y-90336666D01*
X143883095Y-90431904D01*
X143597380Y-89241428D02*
X143597380Y-89146190D01*
X143645000Y-89050952D01*
X143692619Y-89003333D01*
X143787857Y-88955714D01*
X143978333Y-88908095D01*
X144216428Y-88908095D01*
X144406904Y-88955714D01*
X144502142Y-89003333D01*
X144549761Y-89050952D01*
X144597380Y-89146190D01*
X144597380Y-89241428D01*
X144549761Y-89336666D01*
X144502142Y-89384285D01*
X144406904Y-89431904D01*
X144216428Y-89479523D01*
X143978333Y-89479523D01*
X143787857Y-89431904D01*
X143692619Y-89384285D01*
X143645000Y-89336666D01*
X143597380Y-89241428D01*
%TO.C,C11*%
X123547142Y-95892857D02*
X123594761Y-95940476D01*
X123642380Y-96083333D01*
X123642380Y-96178571D01*
X123594761Y-96321428D01*
X123499523Y-96416666D01*
X123404285Y-96464285D01*
X123213809Y-96511904D01*
X123070952Y-96511904D01*
X122880476Y-96464285D01*
X122785238Y-96416666D01*
X122690000Y-96321428D01*
X122642380Y-96178571D01*
X122642380Y-96083333D01*
X122690000Y-95940476D01*
X122737619Y-95892857D01*
X123642380Y-94940476D02*
X123642380Y-95511904D01*
X123642380Y-95226190D02*
X122642380Y-95226190D01*
X122785238Y-95321428D01*
X122880476Y-95416666D01*
X122928095Y-95511904D01*
X123642380Y-93988095D02*
X123642380Y-94559523D01*
X123642380Y-94273809D02*
X122642380Y-94273809D01*
X122785238Y-94369047D01*
X122880476Y-94464285D01*
X122928095Y-94559523D01*
%TO.C,D3*%
X151836380Y-79986095D02*
X150836380Y-79986095D01*
X150836380Y-79748000D01*
X150884000Y-79605142D01*
X150979238Y-79509904D01*
X151074476Y-79462285D01*
X151264952Y-79414666D01*
X151407809Y-79414666D01*
X151598285Y-79462285D01*
X151693523Y-79509904D01*
X151788761Y-79605142D01*
X151836380Y-79748000D01*
X151836380Y-79986095D01*
X150836380Y-79081333D02*
X150836380Y-78462285D01*
X151217333Y-78795619D01*
X151217333Y-78652761D01*
X151264952Y-78557523D01*
X151312571Y-78509904D01*
X151407809Y-78462285D01*
X151645904Y-78462285D01*
X151741142Y-78509904D01*
X151788761Y-78557523D01*
X151836380Y-78652761D01*
X151836380Y-78938476D01*
X151788761Y-79033714D01*
X151741142Y-79081333D01*
%TO.C,F2*%
X147391666Y-45648571D02*
X147058333Y-45648571D01*
X147058333Y-46172380D02*
X147058333Y-45172380D01*
X147534523Y-45172380D01*
X147867857Y-45267619D02*
X147915476Y-45220000D01*
X148010714Y-45172380D01*
X148248809Y-45172380D01*
X148344047Y-45220000D01*
X148391666Y-45267619D01*
X148439285Y-45362857D01*
X148439285Y-45458095D01*
X148391666Y-45600952D01*
X147820238Y-46172380D01*
X148439285Y-46172380D01*
%TO.C,F6*%
X155766666Y-55466571D02*
X155433333Y-55466571D01*
X155433333Y-55990380D02*
X155433333Y-54990380D01*
X155909523Y-54990380D01*
X156719047Y-54990380D02*
X156528571Y-54990380D01*
X156433333Y-55038000D01*
X156385714Y-55085619D01*
X156290476Y-55228476D01*
X156242857Y-55418952D01*
X156242857Y-55799904D01*
X156290476Y-55895142D01*
X156338095Y-55942761D01*
X156433333Y-55990380D01*
X156623809Y-55990380D01*
X156719047Y-55942761D01*
X156766666Y-55895142D01*
X156814285Y-55799904D01*
X156814285Y-55561809D01*
X156766666Y-55466571D01*
X156719047Y-55418952D01*
X156623809Y-55371333D01*
X156433333Y-55371333D01*
X156338095Y-55418952D01*
X156290476Y-55466571D01*
X156242857Y-55561809D01*
%TO.C,J1*%
X128190666Y-32472380D02*
X128190666Y-33186666D01*
X128143047Y-33329523D01*
X128047809Y-33424761D01*
X127904952Y-33472380D01*
X127809714Y-33472380D01*
X129190666Y-33472380D02*
X128619238Y-33472380D01*
X128904952Y-33472380D02*
X128904952Y-32472380D01*
X128809714Y-32615238D01*
X128714476Y-32710476D01*
X128619238Y-32758095D01*
%TO.C,K1*%
X142352380Y-66930095D02*
X141352380Y-66930095D01*
X142352380Y-66358666D02*
X141780952Y-66787238D01*
X141352380Y-66358666D02*
X141923809Y-66930095D01*
X142352380Y-65406285D02*
X142352380Y-65977714D01*
X142352380Y-65692000D02*
X141352380Y-65692000D01*
X141495238Y-65787238D01*
X141590476Y-65882476D01*
X141638095Y-65977714D01*
%TO.C,L1*%
X125817333Y-48204380D02*
X125341142Y-48204380D01*
X125341142Y-47204380D01*
X126674476Y-48204380D02*
X126103047Y-48204380D01*
X126388761Y-48204380D02*
X126388761Y-47204380D01*
X126293523Y-47347238D01*
X126198285Y-47442476D01*
X126103047Y-47490095D01*
%TO.C,RV1*%
X131992761Y-43632380D02*
X131659428Y-43156190D01*
X131421333Y-43632380D02*
X131421333Y-42632380D01*
X131802285Y-42632380D01*
X131897523Y-42680000D01*
X131945142Y-42727619D01*
X131992761Y-42822857D01*
X131992761Y-42965714D01*
X131945142Y-43060952D01*
X131897523Y-43108571D01*
X131802285Y-43156190D01*
X131421333Y-43156190D01*
X132278476Y-42632380D02*
X132611809Y-43632380D01*
X132945142Y-42632380D01*
X133802285Y-43632380D02*
X133230857Y-43632380D01*
X133516571Y-43632380D02*
X133516571Y-42632380D01*
X133421333Y-42775238D01*
X133326095Y-42870476D01*
X133230857Y-42918095D01*
%TO.C,TH1*%
X112633285Y-93025980D02*
X113204714Y-93025980D01*
X112919000Y-94025980D02*
X112919000Y-93025980D01*
X113538047Y-94025980D02*
X113538047Y-93025980D01*
X113538047Y-93502171D02*
X114109476Y-93502171D01*
X114109476Y-94025980D02*
X114109476Y-93025980D01*
X115109476Y-94025980D02*
X114538047Y-94025980D01*
X114823761Y-94025980D02*
X114823761Y-93025980D01*
X114728523Y-93168838D01*
X114633285Y-93264076D01*
X114538047Y-93311695D01*
%TO.C,U2*%
X116292380Y-31749904D02*
X117101904Y-31749904D01*
X117197142Y-31702285D01*
X117244761Y-31654666D01*
X117292380Y-31559428D01*
X117292380Y-31368952D01*
X117244761Y-31273714D01*
X117197142Y-31226095D01*
X117101904Y-31178476D01*
X116292380Y-31178476D01*
X116387619Y-30749904D02*
X116340000Y-30702285D01*
X116292380Y-30607047D01*
X116292380Y-30368952D01*
X116340000Y-30273714D01*
X116387619Y-30226095D01*
X116482857Y-30178476D01*
X116578095Y-30178476D01*
X116720952Y-30226095D01*
X117292380Y-30797523D01*
X117292380Y-30178476D01*
%TO.C,U3*%
X134874095Y-85304380D02*
X134874095Y-86113904D01*
X134921714Y-86209142D01*
X134969333Y-86256761D01*
X135064571Y-86304380D01*
X135255047Y-86304380D01*
X135350285Y-86256761D01*
X135397904Y-86209142D01*
X135445523Y-86113904D01*
X135445523Y-85304380D01*
X135826476Y-85304380D02*
X136445523Y-85304380D01*
X136112190Y-85685333D01*
X136255047Y-85685333D01*
X136350285Y-85732952D01*
X136397904Y-85780571D01*
X136445523Y-85875809D01*
X136445523Y-86113904D01*
X136397904Y-86209142D01*
X136350285Y-86256761D01*
X136255047Y-86304380D01*
X135969333Y-86304380D01*
X135874095Y-86256761D01*
X135826476Y-86209142D01*
%TO.C,U4*%
X124714095Y-85304380D02*
X124714095Y-86113904D01*
X124761714Y-86209142D01*
X124809333Y-86256761D01*
X124904571Y-86304380D01*
X125095047Y-86304380D01*
X125190285Y-86256761D01*
X125237904Y-86209142D01*
X125285523Y-86113904D01*
X125285523Y-85304380D01*
X126190285Y-85637714D02*
X126190285Y-86304380D01*
X125952190Y-85256761D02*
X125714095Y-85971047D01*
X126333142Y-85971047D01*
%TO.C,U5*%
X118110095Y-84796380D02*
X118110095Y-85605904D01*
X118157714Y-85701142D01*
X118205333Y-85748761D01*
X118300571Y-85796380D01*
X118491047Y-85796380D01*
X118586285Y-85748761D01*
X118633904Y-85701142D01*
X118681523Y-85605904D01*
X118681523Y-84796380D01*
X119633904Y-84796380D02*
X119157714Y-84796380D01*
X119110095Y-85272571D01*
X119157714Y-85224952D01*
X119252952Y-85177333D01*
X119491047Y-85177333D01*
X119586285Y-85224952D01*
X119633904Y-85272571D01*
X119681523Y-85367809D01*
X119681523Y-85605904D01*
X119633904Y-85701142D01*
X119586285Y-85748761D01*
X119491047Y-85796380D01*
X119252952Y-85796380D01*
X119157714Y-85748761D01*
X119110095Y-85701142D01*
%TD*%
M02*
